<svg xmlns="http://www.w3.org/2000/svg" viewBox="0 0 64 64" width="64" height="64" role="img" aria-label="Bitcoin">
  <circle cx="32" cy="32" r="32" fill="#F7931A"/>
  <path fill="#FFF" d="M41.84 27.95c.63-4.2-2.57-6.46-6.95-7.97l1.42-5.69-3.46-.86-1.38 5.54c-.91-.23-1.85-.44-2.78-.65l1.39-5.57-3.46-.86-1.42 5.69c-.75-.17-1.49-.34-2.21-.52l-.01-.02-4.78-1.19-.92 3.7s2.57.59 2.52.62c1.4.35 1.66 1.28 1.61 2.01l-1.62 6.48c.1.02.22.06.36.11l-.36-.09-2.27 9.08c-.17.43-.61 1.07-1.59.83.04.05-2.52-.63-2.52-.63l-1.72 3.96 4.51 1.12c.84.21 1.66.43 2.47.64l-1.43 5.76 3.46.86 1.42-5.7c.95.26 1.86.49 2.76.72l-1.42 5.67 3.46.86 1.43-5.75c5.91 1.12 10.36.67 12.23-4.67 1.51-4.31-.07-6.79-3.18-8.41 2.27-.52 3.97-2.01 4.43-5.09zm-7.92 10.97c-1.07 4.3-8.32 1.98-10.67 1.39l1.9-7.62c2.35.59 9.89 1.75 8.77 6.23zm1.07-11.16c-.98 3.91-7 1.92-8.96 1.44l1.73-6.92c1.96.49 8.26 1.4 7.23 5.48z"/>
</svg>
