<svg xmlns="http://www.w3.org/2000/svg" viewBox="0 0 64 64" width="64" height="64" role="img" aria-label="Crypto">
  <circle cx="32" cy="32" r="32" fill="#1A1A2E"/>
  <circle cx="32" cy="32" r="26" fill="none" stroke="#F7931A" stroke-width="2"/>
  <path fill="#F7931A" d="M38 24c-2-2-4.5-3-7.5-3-6 0-10.5 4.5-10.5 10.5S24.5 42 30.5 42c3 0 5.5-1 7.5-3l-2.5-2.5c-1.3 1.3-3 2-5 2-3.5 0-6-2.5-6-6s2.5-6 6-6c2 0 3.7.7 5 2L38 24z"/>
  <rect x="31" y="14" width="2" height="6" fill="#F7931A"/>
  <rect x="31" y="44" width="2" height="6" fill="#F7931A"/>
</svg>
