<svg xmlns="http://www.w3.org/2000/svg" viewBox="0 0 64 64" width="64" height="64" role="img" aria-label="USDC">
  <circle cx="32" cy="32" r="32" fill="#2775CA"/>
  <path fill="#FFF" d="M40.4 37.3c0-4.7-2.8-6.3-8.4-7-3.9-.5-4.7-1.5-4.7-3.2 0-1.7 1.2-2.8 3.6-2.8 2.2 0 3.4.8 3.9 2.6.1.5.6.8 1.1.8h2.6c.6 0 1.1-.5 1.1-1.1v-.1c-.3-2.8-2.5-5-5.5-5.4v-3c0-.7-.5-1.2-1.2-1.2h-2.5c-.7 0-1.2.5-1.2 1.2v2.9c-3.9.5-6.4 3.1-6.4 6.3 0 4.5 2.7 6.2 8.4 6.9 3.6.6 4.7 1.3 4.7 3.2 0 1.9-1.7 3.2-3.9 3.2-3 0-4-1.3-4.4-3-.2-.6-.6-.9-1.1-.9h-2.7c-.7 0-1.2.5-1.2 1.1v.1c.4 3.2 2.5 5.6 6.6 6.2v3c0 .7.5 1.2 1.2 1.2h2.5c.7 0 1.2-.5 1.2-1.2v-3c3.9-.6 6.5-3.4 6.5-6.8zM26.6 46.3c-6.7-2.4-10.1-9.9-7.6-16.5 1.3-3.5 4-6 7.6-7.3.6-.3.9-.7.9-1.4v-2.3c0-.6-.3-1-.9-1.2-.1 0-.3 0-.4.1-8.5 2.7-13.1 12-10.3 20.5 1.6 4.9 5.4 8.7 10.3 10.3.6.3 1.2 0 1.3-.6.1-.1.1-.3.1-.4v-2.3c0-.5-.4-1-1-1.3zM37.8 17.6c-.6-.3-1.2 0-1.3.6-.1.1-.1.3-.1.4v2.3c0 .6.4 1.1 1 1.3 6.7 2.4 10.1 9.9 7.6 16.5-1.3 3.5-4 6-7.6 7.3-.6.3-.9.7-.9 1.4v2.3c0 .6.3 1 .9 1.2.1 0 .3 0 .4-.1 8.5-2.7 13.1-12 10.3-20.5-1.6-4.9-5.5-8.7-10.3-10.3z"/>
</svg>
