<svg xmlns="http://www.w3.org/2000/svg" viewBox="0 0 64 64" role="img" aria-label="USDC">
  <circle cx="32" cy="32" r="32" fill="#2775CA"/>
  <path fill="#FFF" d="M38.5 36.8c0 4.9-4 7.6-11 7.6-5.2 0-8.4-1.3-10.2-3.1l2.8-3.4c1.5 1.4 3.6 2.3 7.2 2.3 4.3 0 6.5-1.6 6.5-3.9 0-2.6-2.1-3.5-6.8-4-5.9-.6-9.7-2-9.7-6.8 0-4.5 3.8-7.2 10.3-7.2 4.4 0 7.5 1.1 9.7 2.8l-2.6 3.5c-1.7-1.3-4-2.1-7.1-2.1-3.6 0-5.6 1.5-5.6 3.5 0 2.3 2 3.1 6.7 3.6 5.8.6 9.8 2.1 9.8 7.1zM32 22.5c-1.9 0-3.4-1.5-3.4-3.4s1.5-3.4 3.4-3.4 3.4 1.5 3.4 3.4-1.5 3.4-3.4 3.4z"/>
</svg>
